<?xml version='1.0' encoding='ascii'?>
<svg xmlns="http://www.w3.org/2000/svg" height="1080" version="1.1" width="1920">
    <g id="View Layer_LineSet" inkscape:groupmode="lineset" inkscape:label="View Layer_LineSet" xmlns:inkscape="http://www.inkscape.org/namespaces/inkscape">
        <g id="strokes" inkscape:groupmode="layer" inkscape:label="strokes" xmlns:inkscape="http://www.inkscape.org/namespaces/inkscape">
            <path d=" M 1675.582, 524.843 1675.642, 524.877 1677.495, 526.036 1679.341, 527.312 1681.161, 528.698 1682.934, 530.185 1684.643, 531.763 1694.611, 532.560 1704.579, 533.359 1707.386, 533.583 1712.637, 525.072 1717.887, 516.562 1719.599, 513.787 1717.255, 511.633 1714.936, 509.671 1712.639, 507.900 1710.360, 506.319 1708.093, 504.927 1705.835, 503.724 1703.581, 502.708 1701.326, 501.879 1699.066, 501.236 1696.797, 500.777 1694.514, 500.503 1692.213, 500.411 1682.220, 500.040 1672.227, 499.669 1669.916, 499.583 1667.293, 499.756 1664.657, 500.284 1662.005, 501.177 1659.339, 502.447 1658.286, 503.098 " fill="none" stroke="rgb(0, 0, 0)" stroke-linecap="butt" stroke-linejoin="round" stroke-opacity="1.0" stroke-width="3.0" />
            <path d=" M 1692.213, 500.411 1689.509, 500.590 1686.791, 501.134 1684.058, 502.055 1681.308, 503.364 1678.542, 505.073 1675.758, 507.194 1672.955, 509.739 1670.132, 512.718 1667.289, 516.143 1664.423, 520.026 1661.535, 524.379 1658.624, 529.212 " fill="none" stroke="rgb(0, 0, 0)" stroke-linecap="butt" stroke-linejoin="round" stroke-opacity="1.0" stroke-width="3.0" />
            <path d=" M 1658.288, 502.724 1648.288, 502.724 1638.288, 502.723 1635.424, 502.723 " fill="none" stroke="rgb(0, 0, 0)" stroke-linecap="butt" stroke-linejoin="round" stroke-opacity="1.0" stroke-width="3.0" />
            <path d=" M 1614.825, 501.825 1624.816, 502.260 1634.806, 502.696 1635.424, 502.723 1635.359, 512.722 1635.293, 522.722 1635.228, 532.722 1635.163, 542.722 1635.098, 552.722 1635.033, 562.721 1634.968, 572.721 1634.903, 582.721 1634.838, 592.721 1634.773, 602.721 1634.708, 612.720 1634.673, 618.097 " fill="none" stroke="rgb(0, 0, 0)" stroke-linecap="butt" stroke-linejoin="round" stroke-opacity="1.0" stroke-width="3.0" />
            <path d=" M 1658.110, 529.212 1658.110, 529.171 1658.161, 521.645 1658.228, 511.645 1658.286, 503.098 1658.288, 502.724 1648.297, 502.303 1638.306, 501.881 1637.006, 501.826 1627.006, 501.826 1617.006, 501.825 1614.825, 501.825 1614.762, 511.825 1614.699, 521.825 1614.636, 531.824 1614.573, 541.824 1614.510, 551.824 1614.447, 561.824 1614.383, 571.824 1614.320, 581.823 1614.257, 591.823 1614.194, 601.823 1614.131, 611.823 1614.119, 613.751 1623.902, 615.820 1633.686, 617.889 1634.673, 618.097 1644.673, 618.096 1654.673, 618.094 1657.513, 618.094 1657.580, 608.094 1657.647, 598.094 1657.714, 588.095 1657.782, 578.095 1657.849, 568.095 1657.918, 557.743 1658.203, 552.888 1658.968, 548.245 1660.182, 543.853 1661.815, 539.752 1663.835, 535.983 1666.210, 532.587 1668.908, 529.602 1671.898, 527.070 1675.150, 525.031 1675.582, 524.843 1678.630, 523.524 1682.308, 522.591 1686.152, 522.271 1687.571, 522.366 " fill="none" stroke="rgb(0, 0, 0)" stroke-linecap="butt" stroke-linejoin="round" stroke-opacity="1.0" stroke-width="3.0" />
            <path d=" M 1687.571, 522.366 1689.119, 522.645 1690.777, 523.099 1692.524, 523.719 1694.342, 524.496 1696.210, 525.421 1698.109, 526.485 1700.020, 527.680 1701.922, 528.996 1703.797, 530.425 1705.625, 531.957 1707.386, 533.583 " fill="none" stroke="rgb(0, 0, 0)" stroke-linecap="butt" stroke-linejoin="round" stroke-opacity="1.0" stroke-width="3.0" />
            <path d=" M 1658.110, 529.171 1658.624, 529.212 1658.110, 529.212 " fill="none" stroke="rgb(0, 0, 0)" stroke-linecap="butt" stroke-linejoin="round" stroke-opacity="1.0" stroke-width="3.0" />
            <path d=" M 1543.135, 597.615 1538.563, 596.393 1534.652, 594.801 1534.373, 594.687 1530.568, 592.499 1527.148, 589.833 1524.116, 586.689 1521.473, 583.072 1519.221, 578.983 1517.363, 574.426 1515.899, 569.403 1514.832, 563.915 1524.832, 563.915 1534.832, 563.915 1544.832, 563.914 1554.832, 563.914 1564.832, 563.913 1574.832, 563.913 1584.832, 563.912 1594.832, 563.912 1595.994, 563.912 1595.662, 553.917 1595.655, 553.702 1594.526, 544.396 1592.637, 535.992 1590.017, 528.487 1586.696, 521.877 1582.702, 516.159 1578.065, 511.331 1572.815, 507.387 1566.981, 504.326 1560.593, 502.144 1553.680, 500.836 1546.272, 500.401 1536.283, 499.940 1528.339, 499.573 1520.812, 500.044 1513.716, 501.430 1507.094, 503.690 1500.986, 506.781 1495.436, 510.663 1490.484, 515.293 1486.174, 520.630 1482.546, 526.632 1479.642, 533.256 1477.504, 540.462 1476.174, 548.208 1475.693, 556.450 1476.057, 564.117 1477.219, 571.598 1479.163, 578.801 1481.878, 585.634 1485.349, 592.005 1489.562, 597.824 1494.505, 602.999 1500.164, 607.437 1506.525, 611.048 1513.576, 613.741 1523.280, 616.157 1531.034, 618.088 1538.998, 619.822 1547.646, 620.420 1552.384, 620.328 1556.864, 620.052 1561.112, 619.592 1565.158, 618.944 1569.031, 618.107 1572.758, 617.079 1576.369, 615.859 1579.893, 614.444 1583.356, 612.834 1586.789, 611.025 1590.220, 609.017 1593.677, 606.807 1593.738, 596.807 1593.799, 586.807 1593.812, 584.722 1583.959, 583.015 1574.473, 581.372 1571.227, 583.417 1567.989, 585.311 1564.756, 587.049 1561.524, 588.626 1558.289, 590.038 1555.049, 591.278 1551.799, 592.341 1548.536, 593.223 1545.257, 593.918 1541.959, 594.421 1538.637, 594.727 1535.289, 594.830 1534.652, 594.801 " fill="none" stroke="rgb(0, 0, 0)" stroke-linecap="butt" stroke-linejoin="round" stroke-opacity="1.0" stroke-width="3.0" />
            <path d=" M 1546.272, 500.401 1538.513, 500.887 1531.198, 502.315 1524.371, 504.645 1518.074, 507.832 1512.352, 511.833 1507.247, 516.606 1502.803, 522.108 1499.062, 528.295 1496.068, 535.124 1493.863, 542.552 1492.491, 550.536 1491.994, 559.033 1492.368, 566.936 1493.564, 574.648 1495.567, 582.072 1498.364, 589.116 1501.941, 595.683 1506.283, 601.681 1511.378, 607.015 1517.210, 611.590 1523.767, 615.313 1531.034, 618.088 " fill="none" stroke="rgb(0, 0, 0)" stroke-linecap="butt" stroke-linejoin="round" stroke-opacity="1.0" stroke-width="3.0" />
            <path d=" M 1515.427, 548.750 1515.918, 546.475 1516.376, 544.355 1517.632, 540.298 1519.194, 536.590 1521.058, 533.238 1523.225, 530.250 1525.690, 527.634 1528.454, 525.399 1531.513, 523.552 1534.867, 522.101 1538.513, 521.055 1539.628, 520.876 1542.449, 520.422 1546.674, 520.209 1550.589, 520.437 " fill="none" stroke="rgb(0, 0, 0)" stroke-linecap="butt" stroke-linejoin="round" stroke-opacity="1.0" stroke-width="3.0" />
            <path d=" M 1550.589, 520.437 1554.234, 521.109 1557.599, 522.211 1560.672, 523.724 1563.442, 525.634 1565.900, 527.925 1568.034, 530.579 1569.834, 533.582 1571.290, 536.916 1572.391, 540.566 1573.125, 544.516 1573.484, 548.749 " fill="none" stroke="rgb(0, 0, 0)" stroke-linecap="butt" stroke-linejoin="round" stroke-opacity="1.0" stroke-width="3.0" />
            <path d=" M 1554.746, 546.475 1564.673, 547.680 1573.484, 548.749 1563.484, 548.750 1553.484, 548.750 1543.484, 548.750 1533.484, 548.750 1523.484, 548.750 1515.427, 548.750 " fill="none" stroke="rgb(0, 0, 0)" stroke-linecap="butt" stroke-linejoin="round" stroke-opacity="1.0" stroke-width="3.0" />
            <path d=" M 1593.812, 584.722 1590.466, 586.829 1587.128, 588.782 1583.795, 590.574 1580.463, 592.200 1577.129, 593.655 1573.788, 594.933 1570.438, 596.029 1567.074, 596.938 1563.694, 597.655 1560.294, 598.173 1556.870, 598.488 1553.419, 598.595 1548.087, 598.349 1543.135, 597.615 " fill="none" stroke="rgb(0, 0, 0)" stroke-linecap="butt" stroke-linejoin="round" stroke-opacity="1.0" stroke-width="3.0" />
            <path d=" M 1430.832, 505.025 1428.563, 504.231 1426.370, 503.520 1424.245, 502.890 1422.179, 502.337 1420.161, 501.859 1418.185, 501.454 1416.366, 501.140 1416.241, 501.118 1414.319, 500.849 1412.412, 500.645 1410.509, 500.502 1400.527, 499.904 1396.638, 499.671 1394.788, 499.590 1392.927, 499.563 1384.961, 500.038 1377.434, 501.432 1370.393, 503.696 1363.888, 506.782 1357.965, 510.641 1352.673, 515.225 1348.059, 520.484 1344.172, 526.369 1341.059, 532.833 1338.768, 539.827 1337.346, 547.301 1336.842, 555.207 1337.241, 563.905 1338.486, 572.017 1340.546, 579.512 1343.393, 586.356 1346.996, 592.517 1351.327, 597.963 1356.357, 602.661 1362.055, 606.577 1368.392, 609.680 1377.902, 612.773 1381.379, 613.903 1388.540, 616.229 1396.301, 617.649 1404.631, 618.129 1414.631, 618.128 1424.631, 618.127 1434.631, 618.125 1444.631, 618.124 1453.171, 618.123 1453.219, 608.123 1453.267, 598.123 1453.315, 588.123 1453.363, 578.123 1453.411, 568.123 1453.459, 558.123 1453.506, 548.123 1453.554, 538.123 1453.602, 528.124 1453.650, 518.124 1453.698, 508.124 1453.746, 498.124 1453.794, 488.124 1453.842, 478.124 1453.890, 468.124 1453.937, 458.124 1453.985, 448.125 1454.011, 442.720 1444.011, 442.718 1434.011, 442.717 1431.117, 442.716 1421.136, 443.335 1416.621, 443.616 1416.577, 453.615 1416.532, 463.615 1416.488, 473.615 1416.444, 483.615 1416.399, 493.615 1416.366, 501.140 " fill="none" stroke="rgb(0, 0, 0)" stroke-linecap="butt" stroke-linejoin="round" stroke-opacity="1.0" stroke-width="3.0" />
            <path d=" M 1431.117, 442.716 1431.071, 452.716 1431.025, 462.716 1430.980, 472.716 1430.934, 482.716 1430.888, 492.716 1430.842, 502.716 1430.832, 505.025 " fill="none" stroke="rgb(0, 0, 0)" stroke-linecap="butt" stroke-linejoin="round" stroke-opacity="1.0" stroke-width="3.0" />
            <path d=" M 1410.509, 500.502 1408.603, 500.419 1406.684, 500.391 1398.472, 500.881 1390.713, 502.318 1383.455, 504.652 1376.748, 507.833 1370.642, 511.811 1365.186, 516.536 1360.430, 521.957 1356.422, 528.025 1353.212, 534.688 1350.849, 541.898 1349.383, 549.602 1348.862, 557.752 1349.272, 566.718 1350.555, 575.080 1352.678, 582.806 1355.611, 589.861 1359.325, 596.212 1363.789, 601.826 1368.973, 606.668 1374.846, 610.705 1381.379, 613.903 " fill="none" stroke="rgb(0, 0, 0)" stroke-linecap="butt" stroke-linejoin="round" stroke-opacity="1.0" stroke-width="3.0" />
            <path d=" M 1395.494, 597.569 1390.633, 596.003 1388.285, 594.816 1386.419, 593.874 1382.821, 591.220 1379.807, 588.079 1377.346, 584.488 1375.406, 580.485 1373.957, 576.106 1372.967, 571.390 1372.405, 566.373 1372.239, 561.094 1372.568, 555.228 1373.491, 549.731 1374.980, 544.630 1377.008, 539.952 1379.549, 535.724 1382.575, 531.972 1386.060, 528.724 1389.976, 526.006 1394.298, 523.845 1398.997, 522.269 1404.048, 521.303 1408.148, 521.053 1409.422, 520.976 1411.315, 521.003 1413.144, 521.086 1414.924, 521.225 1416.666, 521.424 1418.382, 521.683 1420.086, 522.005 1421.789, 522.391 1423.505, 522.844 1425.245, 523.364 1427.023, 523.954 1428.850, 524.615 1430.739, 525.350 " fill="none" stroke="rgb(0, 0, 0)" stroke-linecap="butt" stroke-linejoin="round" stroke-opacity="1.0" stroke-width="3.0" />
            <path d=" M 1416.266, 523.774 1426.207, 524.856 1430.739, 525.350 1430.693, 535.349 1430.647, 545.349 1430.602, 555.349 1430.556, 565.349 1430.510, 575.349 1430.465, 585.349 1430.419, 595.349 1430.403, 598.864 " fill="none" stroke="rgb(0, 0, 0)" stroke-linecap="butt" stroke-linejoin="round" stroke-opacity="1.0" stroke-width="3.0" />
            <path d=" M 1415.949, 595.091 1425.625, 597.617 1430.403, 598.864 1420.403, 598.865 1410.403, 598.866 1407.283, 598.867 1401.034, 598.536 1395.494, 597.569 " fill="none" stroke="rgb(0, 0, 0)" stroke-linecap="butt" stroke-linejoin="round" stroke-opacity="1.0" stroke-width="3.0" />
            <path d=" M 1261.959, 518.721 1263.262, 519.215 1265.823, 520.673 1268.127, 522.509 1270.161, 524.706 1271.913, 527.246 1273.372, 530.111 1274.524, 533.285 1275.358, 536.750 1275.863, 540.488 1276.025, 544.482 1275.994, 554.482 1275.963, 564.482 1275.932, 574.482 1275.901, 584.482 1275.870, 594.482 1275.838, 604.482 1275.809, 613.795 1284.998, 617.741 1285.942, 618.146 1295.942, 618.145 1305.942, 618.143 1308.810, 618.143 1308.844, 608.143 1308.879, 598.143 1308.913, 588.143 1308.947, 578.143 1308.981, 568.143 1309.015, 558.143 1309.050, 548.143 1309.054, 546.953 1308.723, 539.392 1307.707, 532.520 1306.050, 526.331 1303.800, 520.820 1301.000, 515.980 1297.696, 511.805 1293.935, 508.289 1289.761, 505.426 1285.221, 503.210 1280.359, 501.635 1275.222, 500.694 1269.855, 500.382 1266.641, 500.514 1263.441, 500.909 1260.269, 501.559 1257.138, 502.459 1254.064, 503.602 1251.061, 504.982 1248.144, 506.592 1245.325, 508.426 1242.620, 510.479 1240.044, 512.743 1237.610, 515.213 1235.333, 517.882 " fill="none" stroke="rgb(0, 0, 0)" stroke-linecap="butt" stroke-linejoin="round" stroke-opacity="1.0" stroke-width="3.0" />
            <path d=" M 1234.859, 502.696 1224.859, 502.695 1214.859, 502.695 1211.960, 502.694 " fill="none" stroke="rgb(0, 0, 0)" stroke-linecap="butt" stroke-linejoin="round" stroke-opacity="1.0" stroke-width="3.0" />
            <path d=" M 1204.032, 501.797 1211.960, 502.694 1211.935, 512.694 1211.910, 522.694 1211.885, 532.694 1211.860, 542.694 1211.835, 552.694 1211.810, 562.694 1211.785, 572.694 1211.760, 582.694 1211.735, 592.694 1211.710, 602.694 1211.685, 612.694 1211.671, 618.156 " fill="none" stroke="rgb(0, 0, 0)" stroke-linecap="butt" stroke-linejoin="round" stroke-opacity="1.0" stroke-width="3.0" />
            <path d=" M 1234.818, 517.882 1234.818, 517.801 1234.844, 508.537 1234.859, 502.696 1226.246, 501.798 1216.246, 501.798 1206.246, 501.797 1204.032, 501.797 1204.008, 511.797 1203.983, 521.797 1203.959, 531.797 1203.935, 541.797 1203.911, 551.797 1203.886, 561.797 1203.862, 571.797 1203.838, 581.797 1203.813, 591.797 1203.789, 601.797 1203.765, 611.797 1203.760, 613.805 1211.671, 618.156 1221.671, 618.155 1231.671, 618.154 1234.546, 618.153 1234.573, 608.153 1234.600, 598.153 1234.627, 588.153 1234.654, 578.153 1234.682, 568.153 1234.709, 558.153 1234.736, 548.153 1234.763, 538.153 1234.771, 535.379 1237.423, 532.510 1239.974, 529.941 1242.440, 527.664 1244.838, 525.669 1247.186, 523.945 1249.500, 522.482 1251.797, 521.272 1254.095, 520.303 1256.409, 519.567 1258.758, 519.054 1261.158, 518.753 1261.959, 518.721 1263.626, 518.655 1266.989, 518.883 " fill="none" stroke="rgb(0, 0, 0)" stroke-linecap="butt" stroke-linejoin="round" stroke-opacity="1.0" stroke-width="3.0" />
            <path d=" M 1234.818, 517.801 1235.333, 517.882 1234.818, 517.882 " fill="none" stroke="rgb(0, 0, 0)" stroke-linecap="butt" stroke-linejoin="round" stroke-opacity="1.0" stroke-width="3.0" />
            <path d=" M 1266.989, 518.883 1270.123, 519.553 1273.017, 520.650 1275.657, 522.153 1278.032, 524.046 1280.128, 526.310 1281.934, 528.929 1283.437, 531.882 1284.625, 535.154 1285.484, 538.726 1286.004, 542.579 1286.171, 546.696 1286.139, 556.696 1286.107, 566.696 1286.075, 576.696 1286.043, 586.696 1286.011, 596.696 1285.979, 606.696 1285.946, 616.696 1285.942, 618.146 " fill="none" stroke="rgb(0, 0, 0)" stroke-linecap="butt" stroke-linejoin="round" stroke-opacity="1.0" stroke-width="3.0" />
            <path d=" M 1157.279, 454.134 1155.443, 454.008 1153.605, 454.134 1147.422, 454.691 1145.708, 455.047 1144.078, 455.619 1142.549, 456.392 1141.139, 457.349 1139.862, 458.474 1138.736, 459.749 1137.777, 461.159 1137.002, 462.687 1136.426, 464.317 1136.068, 466.031 1135.943, 467.815 1136.062, 469.598 1136.414, 471.312 1136.983, 472.942 1137.753, 474.470 1138.707, 475.879 1139.828, 477.155 1141.100, 478.279 1142.507, 479.236 1144.033, 480.009 1145.660, 480.582 1147.372, 480.938 1149.153, 481.060 1155.389, 481.317 1157.226, 481.191 1158.992, 480.825 1160.672, 480.235 1162.247, 479.439 1163.702, 478.452 1165.018, 477.294 1166.179, 475.979 1167.167, 474.526 1167.967, 472.951 1168.560, 471.272 1168.930, 469.504 1169.060, 467.666 1168.938, 465.828 1168.575, 464.060 1167.989, 462.380 1167.196, 460.805 1166.213, 459.351 1165.057, 458.036 1163.746, 456.876 1162.295, 455.889 1160.723, 455.092 1159.045, 454.501 1157.279, 454.134 " fill="none" stroke="rgb(0, 0, 0)" stroke-linecap="butt" stroke-linejoin="round" stroke-opacity="1.0" stroke-width="3.0" />
            <path d=" M 1153.605, 454.134 1151.838, 454.500 1150.158, 455.091 1148.583, 455.887 1147.128, 456.874 1145.812, 458.033 1144.651, 459.348 1143.662, 460.802 1142.863, 462.377 1142.270, 464.057 1141.900, 465.824 1141.771, 467.663 1141.893, 469.501 1142.257, 471.268 1142.843, 472.948 1143.637, 474.523 1144.620, 475.977 1145.776, 477.291 1147.087, 478.451 1148.538, 479.437 1150.110, 480.234 1151.787, 480.824 1153.553, 481.191 1155.389, 481.317 " fill="none" stroke="rgb(0, 0, 0)" stroke-linecap="butt" stroke-linejoin="round" stroke-opacity="1.0" stroke-width="3.0" />
            <path d=" M 1166.670, 502.691 1156.670, 502.691 1146.670, 502.690 1143.766, 502.690 " fill="none" stroke="rgb(0, 0, 0)" stroke-linecap="butt" stroke-linejoin="round" stroke-opacity="1.0" stroke-width="3.0" />
            <path d=" M 1137.879, 501.792 1143.766, 502.690 1143.747, 512.690 1143.728, 522.690 1143.710, 532.690 1143.691, 542.690 1143.673, 552.690 1143.654, 562.690 1143.635, 572.690 1143.617, 582.690 1143.598, 592.690 1143.580, 602.690 1143.561, 612.690 1143.551, 618.166 " fill="none" stroke="rgb(0, 0, 0)" stroke-linecap="butt" stroke-linejoin="round" stroke-opacity="1.0" stroke-width="3.0" />
            <path d=" M 1143.551, 618.166 1153.551, 618.164 1163.551, 618.163 1166.431, 618.163 1166.452, 608.163 1166.472, 598.163 1166.493, 588.163 1166.514, 578.163 1166.535, 568.163 1166.555, 558.163 1166.576, 548.163 1166.597, 538.163 1166.618, 528.163 1166.638, 518.163 1166.659, 508.163 1166.670, 502.691 1160.098, 501.794 1150.098, 501.793 1140.098, 501.793 1137.879, 501.792 1137.861, 511.792 1137.843, 521.792 1137.825, 531.792 1137.807, 541.792 1137.789, 551.792 1137.771, 561.792 1137.753, 571.792 1137.735, 581.792 1137.717, 591.792 1137.699, 601.792 1137.681, 611.792 1137.677, 613.813 1143.551, 618.166 " fill="none" stroke="rgb(0, 0, 0)" stroke-linecap="butt" stroke-linejoin="round" stroke-opacity="1.0" stroke-width="3.0" />
            <path d=" M 1013.029, 442.643 1013.022, 452.643 1013.016, 462.643 1013.010, 472.643 1013.004, 482.643 1012.997, 492.643 1012.991, 502.643 1012.985, 512.643 1012.979, 522.643 1012.973, 532.643 1012.966, 542.643 1012.960, 552.643 1012.954, 562.643 1012.948, 572.643 1012.942, 582.643 1012.935, 592.643 1012.929, 602.643 1012.923, 612.643 1012.919, 618.184 " fill="none" stroke="rgb(0, 0, 0)" stroke-linecap="butt" stroke-linejoin="round" stroke-opacity="1.0" stroke-width="3.0" />
            <path d=" M 1038.256, 465.552 1048.256, 465.554 1058.256, 465.555 1068.256, 465.556 1078.256, 465.558 1088.256, 465.559 1098.256, 465.560 1101.979, 465.561 1106.758, 465.339 1106.773, 455.339 1106.788, 445.339 1106.792, 442.660 1096.792, 442.658 1086.792, 442.656 1076.792, 442.655 1066.792, 442.653 1056.792, 442.651 1046.792, 442.649 1036.792, 442.648 1026.792, 442.646 1016.792, 442.644 1013.029, 442.643 1011.058, 443.546 1011.052, 453.546 1011.046, 463.546 1011.040, 473.546 1011.034, 483.546 1011.028, 493.546 1011.022, 503.546 1011.016, 513.546 1011.009, 523.546 1011.003, 533.546 1010.997, 543.546 1010.991, 553.546 1010.985, 563.546 1010.979, 573.546 1010.973, 583.546 1010.967, 593.546 1010.961, 603.546 1010.955, 613.830 1012.919, 618.184 1022.919, 618.183 1032.919, 618.181 1038.125, 618.181 1038.133, 608.181 1038.142, 598.181 1038.151, 588.181 1038.159, 578.181 1038.168, 568.181 1038.176, 558.181 1038.185, 548.181 1038.194, 538.181 1038.195, 536.664 1048.195, 536.664 1058.195, 536.664 1068.195, 536.664 1078.195, 536.664 1088.195, 536.664 1098.195, 536.664 1106.651, 536.664 1106.666, 526.664 1106.681, 516.664 1106.685, 514.015 1101.910, 512.779 1091.910, 512.778 1081.910, 512.778 1071.910, 512.777 1061.910, 512.777 1051.910, 512.776 1041.910, 512.776 1038.215, 512.776 " fill="none" stroke="rgb(0, 0, 0)" stroke-linecap="butt" stroke-linejoin="round" stroke-opacity="1.0" stroke-width="3.0" />
            <path d=" M 1038.214, 514.012 1038.215, 512.776 1038.224, 502.776 1038.233, 492.776 1038.241, 482.776 1038.250, 472.776 1038.256, 465.552 1038.256, 465.330 1048.256, 465.331 1058.256, 465.333 1068.256, 465.334 1078.256, 465.335 1088.256, 465.337 1098.256, 465.338 1106.758, 465.339 " fill="none" stroke="rgb(0, 0, 0)" stroke-linecap="butt" stroke-linejoin="round" stroke-opacity="1.0" stroke-width="3.0" />
            <path d=" M 1106.685, 514.015 1096.685, 514.015 1086.685, 514.014 1076.685, 514.014 1066.685, 514.014 1056.685, 514.013 1046.685, 514.013 1038.214, 514.012 " fill="none" stroke="rgb(0, 0, 0)" stroke-linecap="butt" stroke-linejoin="round" stroke-opacity="1.0" stroke-width="3.0" />
            <path d=" M 890.690, 563.942 892.933, 563.942 902.933, 563.942 912.933, 563.941 922.933, 563.941 932.933, 563.940 942.933, 563.940 952.933, 563.939 962.933, 563.939 972.033, 563.939 971.642, 553.946 971.633, 553.717 970.447, 544.401 968.504, 535.988 965.833, 528.474 962.465, 521.857 958.429, 516.133 953.753, 511.299 948.468, 507.351 942.603, 504.286 936.188, 502.101 929.252, 500.793 921.824, 500.357 914.051, 500.843 906.728, 502.273 899.899, 504.605 893.608, 507.796 887.896, 511.802 882.808, 516.580 878.387, 522.088 874.674, 528.282 871.713, 535.118 869.548, 542.555 868.220, 550.548 867.772, 559.054 868.194, 566.966 869.438, 574.686 871.490, 582.119 874.334, 589.170 877.958, 595.746 882.346, 601.750 887.483, 607.090 893.355, 611.670 899.949, 615.397 907.249, 618.175 915.241, 619.911 923.912, 620.509 928.660, 620.418 933.148, 620.142 937.403, 619.680 941.454, 619.032 945.330, 618.194 949.060, 617.165 952.672, 615.943 956.195, 614.527 959.657, 612.915 963.087, 611.104 966.513, 609.094 969.965, 606.882 969.967, 596.882 969.969, 586.882 969.970, 584.772 969.291, 581.417 966.050, 583.464 962.816, 585.360 959.586, 587.100 956.355, 588.679 953.122, 590.092 949.881, 591.333 946.631, 592.398 943.366, 593.281 940.084, 593.976 936.781, 594.480 933.454, 594.786 930.099, 594.889 924.914, 594.651 920.095, 593.938 915.643, 592.751 911.560, 591.094 907.848, 588.970 904.508, 586.380 901.542, 583.327 898.952, 579.814 896.739, 575.843 894.906, 571.417 893.454, 566.539 892.933, 563.942 " fill="none" stroke="rgb(0, 0, 0)" stroke-linecap="butt" stroke-linejoin="round" stroke-opacity="1.0" stroke-width="3.0" />
            <path d=" M 898.902, 530.239 899.805, 529.277 901.358, 527.621 904.115, 525.383 907.170, 523.534 910.522, 522.081 914.170, 521.034 918.111, 520.400 922.344, 520.187 926.270, 520.415 929.927, 521.088 933.305, 522.191 936.394, 523.706 939.182, 525.618 941.659, 527.911 943.814, 530.569 945.636, 533.574 947.114, 536.913 948.239, 540.567 948.999, 544.521 949.177, 546.482 949.383, 548.759 " fill="none" stroke="rgb(0, 0, 0)" stroke-linecap="butt" stroke-linejoin="round" stroke-opacity="1.0" stroke-width="3.0" />
            <path d=" M 891.197, 548.760 892.122, 544.359 893.357, 540.299 894.900, 536.587 896.749, 533.231 898.902, 530.239 " fill="none" stroke="rgb(0, 0, 0)" stroke-linecap="butt" stroke-linejoin="round" stroke-opacity="1.0" stroke-width="3.0" />
            <path d=" M 949.383, 548.759 939.383, 548.759 929.383, 548.760 919.383, 548.760 909.383, 548.760 899.383, 548.760 891.197, 548.760 892.877, 546.482 " fill="none" stroke="rgb(0, 0, 0)" stroke-linecap="butt" stroke-linejoin="round" stroke-opacity="1.0" stroke-width="3.0" />
            <path d=" M 969.970, 584.772 966.629, 586.882 963.295, 588.836 959.965, 590.630 956.635, 592.258 953.302, 593.715 949.961, 594.994 946.610, 596.092 943.245, 597.002 939.861, 597.719 936.456, 598.238 933.027, 598.553 929.568, 598.660 924.223, 598.415 919.255, 597.679 914.666, 596.456 910.457, 594.748 906.630, 592.558 903.187, 589.888 900.129, 586.741 897.459, 583.120 895.178, 579.027 893.289, 574.465 891.792, 569.435 890.690, 563.942 " fill="none" stroke="rgb(0, 0, 0)" stroke-linecap="butt" stroke-linejoin="round" stroke-opacity="1.0" stroke-width="3.0" />
            <path d=" M 817.979, 454.082 816.139, 453.956 814.300, 454.082 812.532, 454.448 810.852, 455.039 809.277, 455.836 807.824, 456.823 806.510, 457.983 805.352, 459.299 804.366, 460.754 803.571, 462.330 802.983, 464.011 802.618, 465.779 802.495, 467.619 802.624, 469.458 802.993, 471.227 803.586, 472.907 804.385, 474.484 805.374, 475.938 806.535, 477.253 807.852, 478.413 809.308, 479.400 810.885, 480.198 812.566, 480.788 814.334, 481.155 816.173, 481.281 820.105, 481.025 821.888, 480.903 823.603, 480.548 825.232, 479.975 826.760, 479.202 828.169, 478.245 829.444, 477.120 830.567, 475.844 831.523, 474.434 832.294, 472.905 832.866, 471.275 833.219, 469.560 833.340, 467.776 833.216, 465.991 832.858, 464.276 832.283, 462.645 831.508, 461.116 830.549, 459.705 829.423, 458.429 828.146, 457.303 826.734, 456.345 825.204, 455.571 823.573, 454.998 821.857, 454.642 817.979, 454.082 " fill="none" stroke="rgb(0, 0, 0)" stroke-linecap="butt" stroke-linejoin="round" stroke-opacity="1.0" stroke-width="3.0" />
            <path d=" M 816.173, 481.281 818.012, 481.156 819.780, 480.789 821.459, 480.199 823.034, 479.402 824.487, 478.415 825.801, 477.256 826.959, 475.940 827.944, 474.486 828.740, 472.910 829.328, 471.230 829.693, 469.461 829.817, 467.622 829.689, 465.783 829.320, 464.014 828.728, 462.333 827.929, 460.757 826.940, 459.302 825.779, 457.986 824.462, 456.826 823.006, 455.838 821.429, 455.041 819.748, 454.450 817.979, 454.082 " fill="none" stroke="rgb(0, 0, 0)" stroke-linecap="butt" stroke-linejoin="round" stroke-opacity="1.0" stroke-width="3.0" />
            <path d=" M 827.537, 502.669 817.537, 502.668 807.537, 502.667 804.604, 502.667 " fill="none" stroke="rgb(0, 0, 0)" stroke-linecap="butt" stroke-linejoin="round" stroke-opacity="1.0" stroke-width="3.0" />
            <path d=" M 804.604, 502.667 804.618, 512.667 804.631, 522.667 804.645, 532.667 804.658, 542.667 804.672, 552.667 804.685, 562.667 804.699, 572.667 804.712, 582.667 804.726, 592.667 804.739, 602.667 804.753, 612.667 804.760, 618.213 814.760, 618.212 824.760, 618.210 827.668, 618.210 831.250, 613.854 831.239, 603.854 831.228, 593.854 831.217, 583.854 831.206, 573.854 831.195, 563.854 831.184, 553.854 831.173, 543.854 831.162, 533.854 831.151, 523.854 831.140, 513.854 831.129, 503.854 831.127, 501.771 821.127, 501.771 811.127, 501.770 808.882, 501.770 804.604, 502.667 " fill="none" stroke="rgb(0, 0, 0)" stroke-linecap="butt" stroke-linejoin="round" stroke-opacity="1.0" stroke-width="3.0" />
            <path d=" M 827.668, 618.210 827.657, 608.210 827.645, 598.210 827.634, 588.210 827.623, 578.210 827.611, 568.210 827.600, 558.210 827.589, 548.210 827.577, 538.210 827.566, 528.210 827.555, 518.210 827.543, 508.210 827.537, 502.669 831.127, 501.771 " fill="none" stroke="rgb(0, 0, 0)" stroke-linecap="butt" stroke-linejoin="round" stroke-opacity="1.0" stroke-width="3.0" />
            <path d=" M 736.825, 501.971 736.722, 501.941 734.709, 501.404 732.744, 500.940 730.820, 500.546 728.927, 500.220 727.057, 499.959 725.200, 499.761 723.349, 499.622 721.495, 499.541 719.629, 499.514 711.647, 499.990 704.363, 500.832 696.594, 502.271 689.333, 504.608 682.631, 507.793 676.536, 511.776 671.098, 516.507 666.365, 521.935 662.387, 528.010 659.213, 534.682 656.892, 541.900 655.472, 549.614 655.004, 557.774 655.474, 566.751 656.815, 575.124 658.994, 582.859 661.981, 589.923 665.746, 596.282 670.258, 601.902 675.486, 606.750 681.401, 610.793 687.971, 613.995 695.165, 616.324 702.955, 617.746 711.309, 618.226 721.309, 618.225 731.309, 618.223 741.309, 618.222 751.309, 618.221 759.969, 618.219 765.579, 613.862 765.562, 603.862 765.545, 593.862 765.528, 583.863 765.510, 573.863 765.493, 563.863 765.476, 553.863 765.459, 543.863 765.442, 533.863 765.424, 523.863 765.407, 513.863 765.390, 503.863 765.373, 493.863 765.356, 483.863 765.338, 473.863 765.321, 463.863 765.304, 453.863 765.286, 443.503 759.658, 442.599 749.658, 442.598 739.658, 442.596 736.706, 442.595 736.726, 452.595 736.746, 462.595 736.766, 472.595 736.786, 482.595 736.806, 492.595 736.825, 501.971 736.831, 504.982 " fill="none" stroke="rgb(0, 0, 0)" stroke-linecap="butt" stroke-linejoin="round" stroke-opacity="1.0" stroke-width="3.0" />
            <path d=" M 759.969, 618.219 759.951, 608.219 759.934, 598.219 759.916, 588.219 759.898, 578.219 759.880, 568.219 759.863, 558.219 759.845, 548.220 759.827, 538.220 759.810, 528.220 759.792, 518.220 759.774, 508.220 759.756, 498.220 759.739, 488.220 759.721, 478.220 759.703, 468.220 759.685, 458.220 759.668, 448.220 759.658, 442.599 " fill="none" stroke="rgb(0, 0, 0)" stroke-linecap="butt" stroke-linejoin="round" stroke-opacity="1.0" stroke-width="3.0" />
            <path d=" M 736.831, 504.982 734.551, 504.187 732.348, 503.475 730.214, 502.843 728.138, 502.290 726.113, 501.812 724.129, 501.406 722.178, 501.070 720.250, 500.801 718.336, 500.596 716.428, 500.453 714.516, 500.370 712.592, 500.342 704.363, 500.832 " fill="none" stroke="rgb(0, 0, 0)" stroke-linecap="butt" stroke-linejoin="round" stroke-opacity="1.0" stroke-width="3.0" />
            <path d=" M 705.030, 522.247 710.087, 521.280 710.898, 521.231 715.473, 520.952 717.370, 520.979 719.205, 521.062 720.990, 521.202 722.737, 521.401 724.460, 521.661 726.170, 521.983 727.880, 522.370 729.603, 522.822 731.351, 523.343 733.136, 523.934 734.972, 524.596 736.871, 525.331 736.891, 535.331 736.911, 545.331 736.931, 555.331 736.951, 565.331 736.971, 575.331 736.990, 585.331 737.010, 595.158 737.018, 598.937 " fill="none" stroke="rgb(0, 0, 0)" stroke-linecap="butt" stroke-linejoin="round" stroke-opacity="1.0" stroke-width="3.0" />
            <path d=" M 737.018, 598.937 727.018, 598.938 717.018, 598.939 713.841, 598.940 707.574, 598.609 702.014, 597.641 697.130, 596.072 692.892, 593.941 689.267, 591.284 686.225, 588.139 683.734, 584.544 681.763, 580.535 680.282, 576.151 679.259, 571.429 678.662, 566.406 678.461, 561.120 678.753, 555.247 679.641, 549.743 681.100, 544.636 683.103, 539.952 685.622, 535.718 688.631, 531.962 692.103, 528.710 696.012, 525.988 700.330, 523.825 705.030, 522.247 " fill="none" stroke="rgb(0, 0, 0)" stroke-linecap="butt" stroke-linejoin="round" stroke-opacity="1.0" stroke-width="3.0" />
            <path d=" M 584.517, 616.130 591.791, 612.804 598.387, 608.628 604.255, 603.646 609.349, 597.902 613.620, 591.442 617.019, 584.309 619.499, 576.549 621.011, 568.204 621.508, 559.320 620.943, 550.967 619.342, 543.062 616.758, 535.659 613.250, 528.810 608.873, 522.569 603.684, 516.987 597.739, 512.119 591.095, 508.017 583.808, 504.734 575.936, 502.324 567.534, 500.839 558.660, 500.331 550.199, 500.857 542.139, 502.393 534.545, 504.876 527.482, 508.243 521.013, 512.428 515.203, 517.370 510.116, 523.004 505.817, 529.266 502.370, 536.093 499.838, 543.421 498.286, 551.186 497.778, 559.324 498.338, 567.994 499.905, 576.199 502.426, 583.884 505.846, 590.995 510.111, 597.475 515.167, 603.270 520.961, 608.325 527.438, 612.584 534.544, 615.992 542.226, 618.495 550.430, 620.037 559.102, 620.562 568.124, 620.054 576.612, 618.562 584.517, 616.130 593.817, 612.454 595.385, 611.835 602.441, 608.608 608.840, 604.557 614.533, 599.724 619.474, 594.152 623.618, 587.885 626.916, 580.966 629.322, 573.438 630.790, 565.343 631.272, 556.725 630.725, 548.622 629.172, 540.954 626.667, 533.773 623.265, 527.129 619.020, 521.075 613.987, 515.660 608.220, 510.938 601.776, 506.959 594.708, 503.775 587.072, 501.437 578.923, 499.996 570.315, 499.504 562.108, 500.014 552.133, 500.720 550.199, 500.857 " fill="none" stroke="rgb(0, 0, 0)" stroke-linecap="butt" stroke-linejoin="round" stroke-opacity="1.0" stroke-width="3.0" />
            <path d=" M 553.193, 521.279 558.478, 520.947 559.452, 521.005 564.076, 521.279 569.373, 522.253 574.334, 523.834 578.923, 525.986 583.105, 528.674 586.846, 531.864 590.110, 535.520 592.863, 539.609 595.068, 544.093 596.692, 548.940 597.700, 554.113 598.056, 559.578 597.762, 565.619 596.856, 571.242 595.357, 576.426 593.288, 581.152 590.670, 585.398 587.525, 589.144 583.873, 592.371 579.736, 595.057 579.117, 595.343 575.136, 597.182 " fill="none" stroke="rgb(0, 0, 0)" stroke-linecap="butt" stroke-linejoin="round" stroke-opacity="1.0" stroke-width="3.0" />
            <path d=" M 575.136, 597.182 570.094, 598.725 564.631, 599.666 558.768, 599.985 553.377, 599.653 548.301, 598.672 543.570, 597.072 539.213, 594.880 535.257, 592.122 531.732, 588.828 528.667, 585.023 526.089, 580.737 524.029, 575.996 522.515, 570.829 521.576, 565.262 521.240, 559.323 521.540, 553.917 522.462, 548.792 523.974, 543.985 526.040, 539.532 528.627, 535.469 531.701, 531.831 535.229, 528.654 539.176, 525.975 543.508, 523.829 548.192, 522.251 553.193, 521.279 " fill="none" stroke="rgb(0, 0, 0)" stroke-linecap="butt" stroke-linejoin="round" stroke-opacity="1.0" stroke-width="3.0" />
            <path d=" M 421.489, 618.583 429.394, 616.151 436.668, 612.824 443.261, 608.647 449.125, 603.663 454.213, 597.918 458.477, 591.456 461.868, 584.322 464.338, 576.559 465.839, 568.212 466.322, 559.325 465.745, 550.970 464.131, 543.063 461.535, 535.658 458.015, 528.807 453.627, 522.564 448.426, 516.981 442.471, 512.111 435.817, 508.008 428.521, 504.725 420.641, 502.313 412.233, 500.828 403.353, 500.320 394.888, 500.846 386.826, 502.383 379.232, 504.867 372.169, 508.234 365.703, 512.421 359.897, 517.364 354.816, 522.999 350.523, 529.263 347.084, 536.092 344.562, 543.422 343.020, 551.189 342.524, 559.330 343.097, 568.002 344.677, 576.209 347.210, 583.896 350.643, 591.009 354.920, 597.491 359.987, 603.288 365.792, 608.344 372.278, 612.604 379.394, 616.014 387.083, 618.517 395.294, 620.059 403.971, 620.584 412.998, 620.076 421.489, 618.583 431.125, 615.911 437.244, 614.213 444.913, 611.854 451.969, 608.626 458.365, 604.574 464.054, 599.740 468.990, 594.167 473.127, 587.898 476.417, 580.977 478.814, 573.447 480.271, 565.350 480.741, 556.729 480.183, 548.625 478.618, 540.955 476.101, 533.771 472.688, 527.126 468.432, 521.069 463.388, 515.654 457.612, 510.930 451.159, 506.950 444.083, 503.765 436.439, 501.426 428.283, 499.985 419.670, 499.493 409.683, 499.999 403.353, 500.320 " fill="none" stroke="rgb(0, 0, 0)" stroke-linecap="butt" stroke-linejoin="round" stroke-opacity="1.0" stroke-width="3.0" />
            <path d=" M 397.913, 521.274 403.201, 520.942 408.134, 521.234 408.803, 521.274 414.104, 522.248 419.070, 523.829 423.665, 525.982 427.853, 528.671 431.601, 531.862 434.872, 535.519 437.632, 539.609 439.846, 544.095 441.478, 548.942 442.493, 554.117 442.857, 559.584 442.573, 565.626 441.674, 571.250 440.182, 576.436 438.119, 581.163 435.506, 585.410 432.364, 589.158 428.715, 592.385 424.580, 595.072 422.468, 596.048 419.980, 597.197 414.938, 598.741 " fill="none" stroke="rgb(0, 0, 0)" stroke-linecap="butt" stroke-linejoin="round" stroke-opacity="1.0" stroke-width="3.0" />
            <path d=" M 414.938, 598.741 409.473, 599.683 403.608, 600.002 398.213, 599.669 393.133, 598.689 388.397, 597.088 384.033, 594.895 380.072, 592.137 376.540, 588.841 373.467, 585.036 370.882, 580.748 368.814, 576.006 367.292, 570.837 366.343, 565.269 365.998, 559.329 366.291, 553.921 367.206, 548.795 368.711, 543.986 370.772, 539.532 373.355, 535.468 376.426, 531.829 379.950, 528.651 383.895, 525.971 388.227, 523.824 392.911, 522.247 397.913, 521.274 " fill="none" stroke="rgb(0, 0, 0)" stroke-linecap="butt" stroke-linejoin="round" stroke-opacity="1.0" stroke-width="3.0" />
            <path d=" M 244.070, 536.659 254.070, 536.659 264.070, 536.659 265.177, 536.659 275.177, 536.659 285.177, 536.659 295.177, 536.659 305.177, 536.659 312.720, 536.659 322.670, 535.657 331.753, 534.742 331.695, 524.742 331.637, 514.742 331.625, 512.741 321.625, 512.741 311.625, 512.740 301.625, 512.740 291.625, 512.739 281.625, 512.739 271.625, 512.738 265.022, 512.738 264.958, 502.738 264.893, 492.738 264.829, 482.739 264.764, 472.739 264.717, 465.449 274.717, 465.451 284.717, 465.452 294.717, 465.453 304.717, 465.455 314.717, 465.456 324.717, 465.457 331.350, 465.458 331.291, 455.458 331.233, 445.459 331.221, 443.429 321.233, 442.953 312.155, 442.522 302.155, 442.520 292.155, 442.518 282.155, 442.516 272.155, 442.515 262.155, 442.513 252.155, 442.511 242.155, 442.509 232.155, 442.508 222.155, 442.506 218.125, 442.505 218.194, 452.505 218.263, 462.505 218.331, 472.505 218.400, 482.504 218.469, 492.504 218.538, 502.504 218.607, 512.504 218.676, 522.503 218.745, 532.503 218.814, 542.503 218.883, 552.503 218.952, 562.502 219.021, 572.502 219.089, 582.502 219.158, 592.502 219.227, 602.501 219.296, 612.501 219.336, 618.295 229.336, 618.294 239.336, 618.292 244.613, 618.291 254.405, 616.263 264.197, 614.235 265.675, 613.928 265.611, 603.929 265.546, 593.929 265.482, 583.929 265.417, 573.929 265.353, 563.929 265.288, 553.930 265.224, 543.930 265.177, 536.659 " fill="none" stroke="rgb(0, 0, 0)" stroke-linecap="butt" stroke-linejoin="round" stroke-opacity="1.0" stroke-width="3.0" />
            <path d=" M 243.595, 465.224 253.595, 465.225 263.595, 465.227 273.595, 465.228 283.595, 465.229 293.595, 465.231 303.595, 465.232 312.291, 465.233 " fill="none" stroke="rgb(0, 0, 0)" stroke-linecap="butt" stroke-linejoin="round" stroke-opacity="1.0" stroke-width="3.0" />
            <path d=" M 331.350, 465.458 321.350, 465.340 312.291, 465.233 312.231, 455.233 312.171, 445.234 312.155, 442.522 " fill="none" stroke="rgb(0, 0, 0)" stroke-linecap="butt" stroke-linejoin="round" stroke-opacity="1.0" stroke-width="3.0" />
            <path d=" M 243.919, 513.975 243.853, 503.976 243.786, 493.976 243.720, 483.976 243.653, 473.976 243.595, 465.224 253.594, 465.331 263.594, 465.437 264.717, 465.449 " fill="none" stroke="rgb(0, 0, 0)" stroke-linecap="butt" stroke-linejoin="round" stroke-opacity="1.0" stroke-width="3.0" />
            <path d=" M 312.584, 513.979 302.584, 513.978 292.584, 513.978 282.584, 513.977 272.584, 513.977 262.584, 513.976 252.584, 513.976 243.919, 513.975 253.902, 513.390 263.885, 512.805 265.022, 512.738 " fill="none" stroke="rgb(0, 0, 0)" stroke-linecap="butt" stroke-linejoin="round" stroke-opacity="1.0" stroke-width="3.0" />
            <path d=" M 312.720, 536.659 312.660, 526.660 312.600, 516.660 312.584, 513.979 322.563, 513.330 331.625, 512.741 " fill="none" stroke="rgb(0, 0, 0)" stroke-linecap="butt" stroke-linejoin="round" stroke-opacity="1.0" stroke-width="3.0" />
            <path d=" M 244.613, 618.291 244.546, 608.292 244.480, 598.292 244.413, 588.292 244.347, 578.292 244.280, 568.293 244.214, 558.293 244.147, 548.293 244.081, 538.293 244.070, 536.659 " fill="none" stroke="rgb(0, 0, 0)" stroke-linecap="butt" stroke-linejoin="round" stroke-opacity="1.0" stroke-width="3.0" />
            <path d=" M 1539.628, 520.876 1542.312, 522.198 1545.000, 524.051 1547.385, 526.273 1549.456, 528.848 1551.203, 531.761 1552.615, 534.995 1553.684, 538.536 1554.397, 542.368 1554.746, 546.475 1544.746, 546.475 1534.746, 546.475 1524.746, 546.475 1515.918, 546.475 " fill="none" stroke="rgb(0, 0, 0)" stroke-linecap="butt" stroke-linejoin="round" stroke-opacity="1.0" stroke-width="3.0" />
            <path d=" M 1408.148, 521.053 1409.248, 521.343 1410.936, 521.848 1412.660, 522.420 1414.433, 523.062 1416.266, 523.774 1416.221, 533.774 1416.177, 543.774 1416.132, 553.774 1416.088, 563.774 1416.044, 573.774 1415.999, 583.774 1415.955, 593.774 1415.949, 595.091 1405.949, 595.092 1395.949, 595.093 1393.521, 595.093 1388.285, 594.816 " fill="none" stroke="rgb(0, 0, 0)" stroke-linecap="butt" stroke-linejoin="round" stroke-opacity="1.0" stroke-width="3.0" />
            <path d=" M 1275.222, 500.694 1265.400, 499.857 1260.193, 499.553 1257.076, 499.682 1253.971, 500.065 1250.894, 500.696 1247.857, 501.569 1244.876, 502.677 1241.963, 504.016 1239.132, 505.578 1236.398, 507.357 1234.844, 508.537 " fill="none" stroke="rgb(0, 0, 0)" stroke-linecap="butt" stroke-linejoin="round" stroke-opacity="1.0" stroke-width="3.0" />
            <path d=" M 968.504, 535.988 967.868, 534.093 965.278, 526.804 962.011, 520.385 958.095, 514.832 953.560, 510.143 948.433, 506.313 942.744, 503.341 936.521, 501.221 929.793, 499.952 922.588, 499.529 915.047, 500.000 907.944, 501.388 901.320, 503.650 895.217, 506.745 893.608, 507.796 " fill="none" stroke="rgb(0, 0, 0)" stroke-linecap="butt" stroke-linejoin="round" stroke-opacity="1.0" stroke-width="3.0" />
            <path d=" M 949.177, 546.482 939.177, 546.482 929.177, 546.482 919.177, 546.482 909.177, 546.482 899.177, 546.482 892.877, 546.482 893.775, 542.213 894.973, 538.274 896.470, 534.673 898.263, 531.418 899.805, 529.277 " fill="none" stroke="rgb(0, 0, 0)" stroke-linecap="butt" stroke-linejoin="round" stroke-opacity="1.0" stroke-width="3.0" />
            <path d=" M 737.010, 595.158 727.010, 595.159 720.834, 595.159 714.755, 594.838 709.361, 593.899 704.624, 592.377 700.513, 590.309 696.997, 587.732 694.046, 584.681 691.631, 581.194 689.719, 577.305 688.283, 573.052 687.290, 568.472 686.712, 563.599 686.517, 558.471 686.801, 552.774 687.663, 547.435 689.079, 542.481 691.021, 537.937 693.465, 533.831 696.384, 530.187 699.753, 527.032 703.544, 524.392 707.733, 522.294 710.898, 521.231 " fill="none" stroke="rgb(0, 0, 0)" stroke-linecap="butt" stroke-linejoin="round" stroke-opacity="1.0" stroke-width="3.0" />
            <path d=" M 579.117, 595.343 576.097, 595.863 570.410, 596.172 565.180, 595.850 560.257, 594.899 555.668, 593.347 551.441, 591.220 547.604, 588.545 544.185, 585.349 541.212, 581.658 538.713, 577.500 536.715, 572.901 535.247, 567.889 534.336, 562.488 534.011, 556.728 534.303, 551.483 535.198, 546.512 536.665, 541.849 538.670, 537.530 541.180, 533.588 544.162, 530.059 547.584, 526.978 551.413, 524.379 555.615, 522.297 559.452, 521.005 " fill="none" stroke="rgb(0, 0, 0)" stroke-linecap="butt" stroke-linejoin="round" stroke-opacity="1.0" stroke-width="3.0" />
            <path d=" M 422.468, 596.048 419.902, 596.187 414.669, 595.865 409.742, 594.914 405.148, 593.361 400.916, 591.233 397.074, 588.558 393.649, 585.361 390.669, 581.669 388.162, 577.510 386.157, 572.910 384.681, 567.896 383.762, 562.495 383.428, 556.732 383.713, 551.486 384.602, 546.514 386.062, 541.850 388.062, 537.529 390.568, 533.586 393.547, 530.056 396.966, 526.974 400.793, 524.374 404.995, 522.292 408.134, 521.234 " fill="none" stroke="rgb(0, 0, 0)" stroke-linecap="butt" stroke-linejoin="round" stroke-opacity="1.0" stroke-width="3.0" />
        </g>
    </g>
</svg>
